<svg xmlns="http://www.w3.org/2000/svg" width="205" height="171" viewBox="0 0 205 171" fill="none">
  <g clip-path="url(#clip0_2_1748)">
    <path d="M37.3026 135.24L73.4879 135.353L73.4375 151.247C73.4223 156.031 71.5017 160.614 68.0983 163.986C64.6944 167.359 60.0869 169.245 55.2882 169.23C50.4898 169.215 45.8938 167.3 42.5115 163.906C39.1291 160.512 37.2374 155.918 37.2525 151.134L37.3026 135.24Z" fill="#56CFF6"/>
    <path d="M36.0243 169.287C41.7425 169.287 46.378 161.279 46.378 151.4C46.378 141.521 41.7425 133.513 36.0243 133.513C30.3061 133.513 25.6707 141.521 25.6707 151.4C25.6707 161.279 30.3061 169.287 36.0243 169.287Z" stroke="#E8618C" stroke-width="0.507249" stroke-linecap="round" stroke-linejoin="round"/>
    <path d="M27.1527 159.256C25.6796 155.867 26.795 153.79 26.795 151.388C26.795 146.336 28.489 140.613 31.5299 137.025C32.3451 139.592 32.781 142.265 32.824 144.956C32.824 150.008 30.1936 155.658 27.1527 159.256Z" fill="#E8618C"/>
    <path d="M20.1149 162.882C25.8331 162.882 30.4686 154.874 30.4686 144.995C30.4686 135.115 25.8331 127.107 20.1149 127.107C14.3967 127.107 9.76123 135.115 9.76123 144.995C9.76123 154.874 14.3967 162.882 20.1149 162.882Z" fill="white"/>
    <path d="M45.5072 151.943C45.5072 153.937 46.3227 155.531 45.2125 158.238C40.4777 154.456 36.8792 148.109 36.8792 141.568C36.942 139.263 37.2793 136.974 37.884 134.749C42.6399 138.488 45.5072 145.402 45.5072 151.943Z" fill="#E8618C"/>
    <path d="M49.0758 158.405C54.794 158.405 59.4295 150.396 59.4295 140.517C59.4295 130.638 54.794 122.63 49.0758 122.63C43.3577 122.63 38.7222 130.638 38.7222 140.517C38.7222 150.396 43.3577 158.405 49.0758 158.405Z" fill="white"/>
    <path d="M36.0242 169.287V142.461M36.0242 152.968L40.2173 148.189M36.0242 158.675L42.0691 151.788M36.0242 164.555L42.2638 157.442M36.0242 152.978L30.9421 147.182M36.0242 158.685L29.7847 151.572M36.0242 164.566L29.7847 157.453" stroke="#E8618C" stroke-width="0.507249" stroke-linecap="round" stroke-linejoin="round"/>
    <path d="M49.0758 158.405C54.794 158.405 59.4295 150.396 59.4295 140.517C59.4295 130.638 54.794 122.63 49.0758 122.63C43.3577 122.63 38.7222 130.638 38.7222 140.517C38.7222 150.396 43.3577 158.405 49.0758 158.405Z" stroke="#379AE6" stroke-width="0.507249" stroke-miterlimit="10" stroke-linecap="round"/>
    <path d="M49.0757 131.601V169.343M49.0757 142.108L54.1527 136.322M49.0757 147.815L55.3152 140.702M49.0757 153.695L55.3152 146.582M49.0757 142.118L43.9883 136.322M49.0757 147.825L42.8362 140.712M49.0757 153.706L42.8362 146.592" stroke="#379AE6" stroke-width="0.507249" stroke-linecap="round" stroke-linejoin="round"/>
    <path d="M20.1149 162.882C25.8331 162.882 30.4686 154.874 30.4686 144.995C30.4686 135.115 25.8331 127.107 20.1149 127.107C14.3967 127.107 9.76123 135.115 9.76123 144.995C9.76123 154.874 14.3967 162.882 20.1149 162.882Z" stroke="#4EE1CB" stroke-width="0.507249" stroke-linecap="round" stroke-linejoin="round"/>
    <path d="M20.115 136.066V169.349M20.115 146.573L25.192 140.787M20.115 152.28L26.3546 145.167M20.115 158.16L26.3546 151.047M20.115 146.583L15.0329 140.787M20.115 152.29L13.8755 145.177M20.115 158.176L13.8755 151.058" stroke="#4EE1CB" stroke-width="0.507249" stroke-linecap="round" stroke-linejoin="round"/>
    <path d="M104.985 73.209H52.1273C51.2557 73.209 50.5491 73.9138 50.5491 74.7826V113.39C50.5491 114.259 51.2557 114.964 52.1273 114.964H104.985C105.856 114.964 106.563 114.259 106.563 113.39V74.7826C106.563 73.9138 105.856 73.209 104.985 73.209Z" stroke="#5774FF" stroke-width="0.507249" stroke-miterlimit="10" stroke-linecap="round"/>
    <path d="M99.1165 78.4717H86.9216C86.0496 78.4717 85.3433 79.176 85.3433 80.0453V107.91C85.3433 108.779 86.0496 109.483 86.9216 109.483H99.1165C99.9881 109.483 100.695 108.779 100.695 107.91V80.0453C100.695 79.176 99.9881 78.4717 99.1165 78.4717Z" fill="#379AE6"/>
    <path d="M80.7241 98.8896H58.97C58.0984 98.8896 57.3916 99.594 57.3916 100.463V107.933C57.3916 108.802 58.0984 109.507 58.97 109.507H80.7241C81.5957 109.507 82.3025 108.802 82.3025 107.933V100.463C82.3025 99.594 81.5957 98.8896 80.7241 98.8896Z" fill="#379AE6"/>
    <path d="M81.7762 78.439H57.9179C57.627 78.439 57.3916 78.6737 57.3916 78.9632V81.7381C57.3916 82.028 57.627 82.2628 57.9179 82.2628H81.7762C82.0671 82.2628 82.3025 82.028 82.3025 81.7381V78.9632C82.3025 78.6737 82.0671 78.439 81.7762 78.439Z" fill="#379AE6"/>
    <path d="M65.8224 85.6948H59.788C58.7242 85.6948 57.8623 86.5545 57.8623 87.6151V93.6314C57.8623 94.692 58.7242 95.5512 59.788 95.5512H65.8224C66.8856 95.5512 67.7475 94.692 67.7475 93.6314V87.6151C67.7475 86.5545 66.8856 85.6948 65.8224 85.6948Z" fill="#379AE6"/>
    <path d="M79.5606 85.6948H73.5263C72.463 85.6948 71.6011 86.5545 71.6011 87.6151V93.6314C71.6011 94.692 72.463 95.5512 73.5263 95.5512H79.5606C80.6244 95.5512 81.4863 94.692 81.4863 93.6314V87.6151C81.4863 86.5545 80.6244 85.6948 79.5606 85.6948Z" fill="#379AE6"/>
    <path d="M193.041 98.8423C193.324 100.21 193.536 101.591 193.678 102.981C193.836 104.361 193.931 105.745 194.02 107.13C194.109 108.515 194.136 109.905 194.125 111.295C194.138 112.696 194.076 114.097 193.941 115.492C193.659 114.124 193.448 112.743 193.31 111.353C193.147 109.968 193.052 108.583 192.968 107.198C192.884 105.813 192.852 104.423 192.857 103.033C192.862 101.644 192.926 100.237 193.041 98.8423Z" fill="#22CCB2"/>
    <path d="M183.042 116.315C183.297 117.227 183.483 118.156 183.6 119.095C183.726 120.023 183.821 120.952 183.868 121.886C183.916 122.82 183.931 123.759 183.905 124.697C183.889 125.643 183.803 126.586 183.648 127.519C183.391 126.608 183.203 125.678 183.085 124.739C182.958 123.811 182.863 122.877 182.816 121.944C182.769 121.01 182.758 120.076 182.785 119.137C182.8 118.191 182.886 117.248 183.042 116.315Z" fill="#22CCB2"/>
    <path d="M197.681 107.339C199.074 107.197 200.46 106.985 201.832 106.704C200.427 106.563 199.075 106.526 197.649 106.521C196.223 106.515 194.829 106.547 193.44 106.631C192.052 106.715 190.662 106.809 189.279 106.966C187.886 107.108 186.5 107.32 185.128 107.601C186.527 107.733 187.932 107.795 189.337 107.785C190.731 107.795 192.125 107.759 193.514 107.675C194.903 107.591 196.292 107.496 197.681 107.339Z" fill="#22CCB2"/>
    <path d="M12.9844 69.9194C13.2738 71.2988 13.4632 72.6787 13.6158 74.058C13.7683 75.4379 13.8735 76.8279 13.9577 78.2128C14.0419 79.5972 14.0735 80.9877 14.0682 82.3777C14.0764 83.7788 14.0132 85.1794 13.8788 86.5739C13.5895 85.1996 13.4001 83.8203 13.2475 82.4404C13.0949 81.061 12.9897 79.6711 12.9056 78.2861C12.8213 76.9012 12.7898 75.5112 12.8003 74.1213C12.7877 72.7181 12.8492 71.3155 12.9844 69.9194Z" fill="#22CCB2"/>
    <path d="M186.173 122.174C187.115 122.054 188.046 121.866 188.961 121.613C188.025 121.462 187.079 121.377 186.131 121.356C185.189 121.33 184.253 121.345 183.316 121.392C182.379 121.439 181.443 121.534 180.512 121.66C179.57 121.776 178.638 121.962 177.724 122.216C178.659 122.371 179.606 122.457 180.554 122.473C181.496 122.5 182.437 122.494 183.374 122.442C184.31 122.389 185.242 122.3 186.173 122.174Z" fill="#22CCB2"/>
    <path d="M21.8003 77.8158C20.4283 78.0957 19.0429 78.3056 17.6494 78.4453C16.2658 78.6027 14.8769 78.7023 13.4827 78.7863C12.0886 78.8703 10.6996 78.9068 9.30548 78.8961C7.90029 78.9063 6.49556 78.845 5.09668 78.713C6.46866 78.4311 7.85407 78.2196 9.24762 78.0779C10.6312 77.9206 12.0202 77.8265 13.4143 77.7425C14.8085 77.6585 16.1974 77.6215 17.5915 77.6322C18.9967 77.6225 20.4015 77.6838 21.8003 77.8158ZM22.9157 86.9537C23.1701 87.8655 23.3565 88.7945 23.4734 89.7336C23.6049 90.6622 23.6944 91.5957 23.7417 92.5298C23.789 93.4634 23.8048 94.3969 23.7785 95.3361C23.7629 96.2818 23.6767 97.225 23.5207 98.158C23.2671 97.2457 23.079 96.3167 22.9578 95.3781C22.8315 94.4496 22.7421 93.516 22.6947 92.5819C22.6474 91.6484 22.6316 90.7148 22.6579 89.7756C22.6737 88.8299 22.7599 87.8867 22.9157 86.9537Z" fill="#22CCB2"/>
    <path d="M28.815 92.2602C27.9019 92.5122 26.9718 92.6979 26.0319 92.8163C25.0955 92.9423 24.1643 93.0369 23.2278 93.084C22.2914 93.131 21.3549 93.1467 20.4132 93.1209C19.4646 93.1052 18.5186 93.0192 17.5828 92.8639C18.4946 92.6053 19.425 92.4176 20.3658 92.3022C21.3023 92.1767 22.2335 92.0821 23.17 92.035C24.1064 91.9875 25.0429 91.9824 25.9899 91.9824C26.9372 92.0052 27.8815 92.0983 28.815 92.2602Z" fill="#22CCB2"/>
    <path d="M85.4856 4.65877C85.333 3.27394 85.1439 1.89436 84.8545 0.52002C84.7218 1.91483 84.6608 3.31545 84.6705 4.71647C84.6598 6.10656 84.6913 7.49138 84.7757 8.88147C84.8596 10.2715 84.9598 11.6564 85.1174 13.0359C85.2593 14.4254 85.4719 15.8067 85.7541 17.1747C85.8959 15.7584 85.9331 14.3683 85.9382 12.9782C85.9437 11.5882 85.9117 10.2033 85.8278 8.81326C85.7434 7.42318 85.6381 6.04362 85.4856 4.65877Z" fill="#22CCB2"/>
    <path d="M93.6444 8.38768C92.2664 8.6762 90.8827 8.86504 89.4935 9.01715C88.1048 9.16925 86.7212 9.2742 85.3319 9.35809C83.9432 9.44204 82.5489 9.47351 81.1495 9.46825C79.7445 9.47629 78.3396 9.4133 76.9407 9.27941C78.3192 8.99094 79.7029 8.8021 81.0916 8.64994C82.4808 8.49784 83.8695 8.39295 85.2587 8.309C86.6474 8.22505 88.0417 8.19358 89.4355 8.20411C90.841 8.19151 92.246 8.25278 93.6444 8.38768Z" fill="#22CCB2"/>
    <path d="M95.3361 20.3266C95.2156 19.3876 95.0274 18.4585 94.7732 17.5464C94.6176 18.4795 94.5311 19.4227 94.5154 20.3685C94.4894 21.3075 94.5052 22.2412 94.5525 23.1749C94.5998 24.1086 94.6893 25.0423 94.8205 25.9708C94.9374 26.9099 95.124 27.8392 95.3783 28.7509C95.5344 27.8161 95.6203 26.8711 95.6361 25.9236C95.6625 24.9898 95.6574 24.0509 95.6046 23.1172C95.5522 22.1835 95.4627 21.255 95.3361 20.3266Z" fill="#22CCB2"/>
    <path d="M100.685 22.8444C99.7705 23.0972 98.839 23.2848 97.8972 23.4056C96.9662 23.5315 96.0295 23.6207 95.0929 23.6732C94.1567 23.7256 93.22 23.7309 92.2783 23.7046C91.33 23.6891 90.3836 23.6032 89.448 23.4476C90.3623 23.1934 91.2944 23.0076 92.2366 22.8916C93.1677 22.7604 94.0987 22.6713 95.0354 22.6241C95.9715 22.5769 96.9133 22.5611 97.8499 22.5873C98.8003 22.6031 99.7482 22.689 100.685 22.8444Z" fill="#22CCB2"/>
    <path d="M0.367188 169.394H205.293" stroke="#565D6D" stroke-width="0.507249" stroke-linecap="round" stroke-linejoin="round"/>
    <path d="M88.379 66.6496L86.6953 63.0929C86.4436 62.5662 86.0521 62.1179 85.5639 61.7961C85.0753 61.4747 84.5078 61.2916 83.923 61.2678L66.425 60.4966C65.139 60.4486 63.885 60.8999 62.927 61.7566C61.969 62.6127 61.3822 63.8069 61.2902 65.0866L56.9974 131.144C56.9572 131.769 57.0432 132.397 57.2491 132.989C57.4551 133.581 57.7775 134.127 58.197 134.594C58.6165 135.061 59.1255 135.439 59.6935 135.708C60.2615 135.977 60.8778 136.13 61.5058 136.158L154.962 140.287C156.248 140.336 157.503 139.885 158.462 139.028C159.42 138.172 160.007 136.977 160.097 135.697L164.127 73.7574C164.161 73.2676 164.095 72.7763 163.935 72.3128C163.775 71.8488 163.523 71.4212 163.195 71.0559C162.866 70.6905 162.467 70.395 162.022 70.1855C161.577 69.9766 161.094 69.8587 160.602 69.8389L88.379 66.6496Z" fill="#E8618C"/>
    <path d="M89.373 74.0066L84.7172 78.9325L58.2121 77.7626C57.73 77.7328 57.247 77.8051 56.7949 77.9756C56.3429 78.1457 55.932 78.4093 55.5903 78.7498C55.2481 79.0899 54.9821 79.4982 54.8102 79.9485C54.6384 80.3989 54.5641 80.8801 54.5926 81.3608L56.5076 131.11C56.5793 132.415 57.129 133.648 58.0519 134.576C58.9754 135.504 60.2075 136.063 61.5158 136.145L154.973 140.274C155.59 140.31 156.208 140.216 156.787 139.998C157.366 139.779 157.891 139.441 158.329 139.005C158.767 138.57 159.108 138.047 159.329 137.471C159.551 136.895 159.647 136.279 159.613 135.663L157.45 79.5776C157.398 78.557 156.97 77.5921 156.249 76.8665C155.528 76.1404 154.564 75.7052 153.542 75.6435L92.1138 72.9263C91.6058 72.8984 91.0978 72.9804 90.6249 73.1671C90.1515 73.3533 89.7244 73.6397 89.373 74.0066ZM144.445 53.4336C144.396 53.4346 144.347 53.4215 144.305 53.3962C144.264 53.3704 144.229 53.3334 144.208 53.2894C144.186 53.2449 144.178 53.1958 144.184 53.1467C144.189 53.0981 144.209 53.0521 144.24 53.0142C145.003 52.0118 145.424 51.3248 145.424 51.3196C145.442 51.2899 145.465 51.2639 145.493 51.2433C145.521 51.2227 145.553 51.2078 145.587 51.1995C145.62 51.1912 145.655 51.1897 145.69 51.195C145.724 51.2003 145.757 51.2123 145.787 51.2304C145.816 51.2477 145.842 51.2707 145.863 51.2981C145.884 51.3255 145.898 51.357 145.907 51.3899C145.915 51.4233 145.917 51.4577 145.912 51.4916C145.906 51.5255 145.894 51.5579 145.876 51.5872C145.502 52.1899 145.095 52.7713 144.656 53.3289C144.631 53.3608 144.599 53.3871 144.563 53.4053C144.526 53.4235 144.486 53.4331 144.445 53.4336Z" fill="#5BB8A6"/>
    <path d="M113.794 75.5906C113.384 75.5906 112.963 75.5805 112.531 75.5593C112.461 75.5557 112.396 75.5249 112.349 75.4733C112.302 75.4216 112.278 75.3533 112.281 75.284C112.285 75.2142 112.316 75.1489 112.368 75.1024C112.42 75.0558 112.488 75.0315 112.557 75.0351C113.962 75.1039 115.37 75.0543 116.766 74.8878C116.8 74.8828 116.835 74.8848 116.868 74.8934C116.901 74.902 116.932 74.9172 116.96 74.9384C116.987 74.9597 117.009 74.986 117.026 75.0163C117.042 75.0462 117.053 75.0796 117.056 75.1135C117.061 75.1479 117.059 75.1828 117.05 75.2162C117.042 75.2496 117.026 75.281 117.005 75.3083C116.984 75.3356 116.957 75.3589 116.927 75.3756C116.897 75.3928 116.864 75.4034 116.829 75.4075C115.822 75.5304 114.808 75.5917 113.794 75.5906ZM120.933 74.484C120.877 74.4845 120.823 74.4678 120.778 74.436C120.732 74.4036 120.698 74.358 120.681 74.3059C120.66 74.2391 120.666 74.1668 120.697 74.1045C120.729 74.0418 120.783 73.9937 120.849 73.9699C122.179 73.5322 123.455 72.9463 124.653 72.2232C124.712 72.1883 124.783 72.1782 124.85 72.1949C124.916 72.2116 124.974 72.2536 125.01 72.3123C125.029 72.3416 125.042 72.3745 125.048 72.4089C125.053 72.4433 125.052 72.4787 125.044 72.5127C125.035 72.5466 125.02 72.5779 124.999 72.6058C124.978 72.6336 124.951 72.6569 124.921 72.6746C123.689 73.4128 122.381 74.0145 121.017 74.4683L120.933 74.484ZM128.156 70.1355C128.104 70.135 128.053 70.1188 128.011 70.0889C127.967 70.0596 127.934 70.0181 127.916 69.9695C127.896 69.9214 127.892 69.8683 127.903 69.8177C127.914 69.7666 127.94 69.7205 127.978 69.6841C128.989 68.7171 129.897 67.6485 130.687 66.4953C130.706 66.4665 130.731 66.4422 130.76 66.4229C130.789 66.4037 130.821 66.3906 130.855 66.384C130.889 66.3774 130.924 66.3779 130.958 66.3845C130.991 66.3916 131.024 66.4047 131.053 66.4245C131.081 66.4437 131.106 66.4685 131.125 66.4968C131.144 66.5257 131.157 66.558 131.164 66.5919C131.17 66.6258 131.17 66.6608 131.163 66.6942C131.156 66.7281 131.143 66.7604 131.124 66.7888C130.313 67.9733 129.38 69.0703 128.341 70.0621C128.316 70.0864 128.288 70.1051 128.256 70.1178C128.224 70.1304 128.191 70.1365 128.156 70.1355ZM132.939 63.1744C132.906 63.182 132.871 63.182 132.839 63.1744C132.806 63.1618 132.777 63.143 132.752 63.1188C132.728 63.095 132.709 63.0661 132.695 63.0343C132.682 63.0024 132.675 62.968 132.676 62.9336C132.676 62.8992 132.683 62.8653 132.697 62.8339C132.87 62.4139 133.028 61.9944 133.17 61.5851C132.259 61.8188 131.327 61.961 130.387 62.0101C130.352 62.0147 130.316 62.0116 130.283 62.001C130.249 61.9909 130.218 61.9732 130.192 61.9499C130.165 61.9266 130.144 61.8978 130.13 61.8659C130.115 61.8335 130.108 61.7986 130.108 61.7637C130.105 61.6934 130.13 61.625 130.177 61.5729C130.225 61.5208 130.29 61.4894 130.36 61.4854C131.377 61.4242 132.383 61.2481 133.36 60.9612C133.575 60.2543 133.733 59.5317 133.833 58.8001C133.837 58.7651 133.848 58.7317 133.865 58.7014C133.882 58.671 133.905 58.6442 133.932 58.6229C133.959 58.6017 133.991 58.5855 134.024 58.5764C134.058 58.5673 134.093 58.5648 134.127 58.5688C134.196 58.5794 134.258 58.6159 134.3 58.6705C134.342 58.7252 134.361 58.794 134.354 58.8628C134.267 59.511 134.136 60.1526 133.959 60.7826L134.433 60.6201C134.496 60.6044 134.562 60.612 134.619 60.6419C134.676 60.6717 134.721 60.7218 134.743 60.7821C134.766 60.8423 134.766 60.9091 134.743 60.9688C134.719 61.029 134.675 61.0786 134.617 61.1079C134.338 61.2127 134.059 61.3017 133.78 61.3857C133.612 61.9104 133.412 62.4665 133.181 63.012C133.161 63.0601 133.128 63.1016 133.085 63.1309C133.042 63.1597 132.991 63.1749 132.939 63.1744ZM126.173 61.5011C126.143 61.5061 126.113 61.5061 126.083 61.5011C124.648 61.0568 123.442 60.0731 122.722 58.7581C122.69 58.6958 122.684 58.624 122.705 58.5577C122.726 58.4909 122.773 58.4357 122.835 58.4039C122.897 58.372 122.969 58.3659 123.036 58.3867C123.103 58.4079 123.158 58.4545 123.19 58.5167C123.849 59.7114 124.95 60.6034 126.257 61.0032C126.323 61.027 126.376 61.075 126.407 61.1378C126.437 61.2005 126.442 61.2724 126.42 61.3387C126.402 61.3887 126.368 61.4318 126.323 61.4621C126.279 61.492 126.226 61.5077 126.173 61.5066V61.5011ZM138.3 59.1932C138.256 59.1942 138.214 59.1841 138.177 59.1639C138.138 59.1436 138.107 59.1143 138.084 59.0778C138.064 59.0495 138.05 59.0181 138.043 58.9842C138.036 58.9508 138.035 58.9164 138.041 58.8825C138.048 58.8486 138.061 58.8167 138.08 58.7879C138.099 58.7596 138.124 58.7348 138.152 58.7161C139.318 57.9333 140.41 57.0468 141.414 56.0666C141.465 56.0181 141.532 55.9912 141.602 55.9923C141.636 55.9928 141.671 56.0004 141.703 56.014C141.735 56.0277 141.764 56.0474 141.787 56.0722C141.812 56.097 141.831 56.1263 141.844 56.1582C141.857 56.1906 141.863 56.225 141.862 56.2594C141.862 56.2938 141.855 56.3282 141.841 56.3601C141.827 56.3915 141.807 56.4203 141.782 56.4446C140.755 57.4455 139.639 58.3512 138.447 59.1512C138.404 59.1821 138.353 59.1983 138.3 59.1983V59.1932ZM133.17 55.0703C133.127 55.0703 133.084 55.0592 133.046 55.0379C133.009 55.0167 132.977 54.9863 132.954 54.9494C132.18 53.8094 131.094 52.9158 129.824 52.3739C129.792 52.3602 129.763 52.3405 129.739 52.3157C129.715 52.2909 129.696 52.2615 129.684 52.2291C129.671 52.1973 129.664 52.1628 129.665 52.1279C129.666 52.0935 129.673 52.0596 129.687 52.0277C129.7 51.9959 129.719 51.9665 129.743 51.9422C129.768 51.9179 129.797 51.8987 129.829 51.8856C129.861 51.8729 129.895 51.8668 129.93 51.8679C129.964 51.8689 129.998 51.877 130.029 51.8916C131.387 52.4781 132.546 53.4415 133.37 54.6665C133.408 54.7242 133.422 54.7946 133.408 54.8624C133.394 54.9302 133.354 54.9899 133.297 55.0283C133.259 55.0546 133.216 55.0713 133.17 55.0754V55.0703ZM122.743 54.7819C122.713 54.787 122.683 54.787 122.653 54.7819C122.589 54.7571 122.536 54.708 122.507 54.6453C122.477 54.583 122.473 54.5112 122.495 54.4459C122.842 53.4744 123.515 52.6516 124.4 52.1168C124.813 51.879 125.255 51.6938 125.715 51.5663C125.782 51.5465 125.854 51.5546 125.915 51.588C125.977 51.6214 126.022 51.6776 126.041 51.7444C126.06 51.8122 126.05 51.8835 126.016 51.9443C125.981 52.005 125.924 52.05 125.857 52.0697C125.438 52.1917 125.036 52.3678 124.663 52.5945C123.89 53.0529 123.297 53.7618 122.985 54.6033C122.967 54.6539 122.934 54.6979 122.891 54.7298C122.848 54.7612 122.797 54.7794 122.743 54.7819ZM108.254 75.0558C107.575 74.9298 106.875 74.7831 106.181 74.61C106.111 74.5938 106.051 74.5508 106.013 74.4906C105.975 74.4299 105.963 74.357 105.978 74.2872C105.995 74.2179 106.038 74.1577 106.098 74.1197C106.159 74.0818 106.232 74.0696 106.302 74.0853C106.991 74.2533 107.68 74.4 108.349 74.526C108.417 74.5387 108.477 74.5781 108.517 74.6348C108.556 74.692 108.571 74.7623 108.559 74.8301C108.554 74.865 108.542 74.8984 108.524 74.9288C108.506 74.9587 108.482 74.985 108.453 75.0062C108.425 75.027 108.393 75.0421 108.359 75.0508C108.325 75.0594 108.289 75.0609 108.254 75.0558Z" fill="#5BB8A6"/>
    <path d="M150.082 50.4033C151.457 48.8895 151.673 46.8504 150.564 45.8488C149.455 44.8472 147.441 45.2623 146.066 46.7761C144.691 48.2898 144.475 50.329 145.584 51.3305C146.693 52.3324 148.707 51.917 150.082 50.4033Z" fill="#171A1F"/>
    <path d="M148.933 46.7211C149.793 46.7211 150.491 46.026 150.491 45.1684C150.491 44.3109 149.793 43.6157 148.933 43.6157C148.074 43.6157 147.376 44.3109 147.376 45.1684C147.376 46.026 148.074 46.7211 148.933 46.7211Z" fill="#5BB8A6"/>
    <path d="M148.934 45.4784C149.105 45.4784 149.244 45.3398 149.244 45.1688C149.244 44.9979 149.105 44.8594 148.934 44.8594C148.762 44.8594 148.623 44.9979 148.623 45.1688C148.623 45.3398 148.762 45.4784 148.934 45.4784Z" fill="#171A1F"/>
    <path d="M151.398 48.9574C152.258 48.9574 152.955 48.2623 152.955 47.4047C152.955 46.5472 152.258 45.8521 151.398 45.8521C150.538 45.8521 149.841 46.5472 149.841 47.4047C149.841 48.2623 150.538 48.9574 151.398 48.9574Z" fill="#5BB8A6"/>
    <path d="M151.398 47.7142C151.57 47.7142 151.709 47.5757 151.709 47.4047C151.709 47.2338 151.57 47.0952 151.398 47.0952C151.227 47.0952 151.088 47.2338 151.088 47.4047C151.088 47.5757 151.227 47.7142 151.398 47.7142Z" fill="#171A1F"/>
    <path d="M147.68 46.2641C147.748 46.2971 147.808 46.3431 147.858 46.3994C147.908 46.4558 147.946 46.5214 147.971 46.5926C147.995 46.6637 148.005 46.739 148.001 46.814C147.996 46.889 147.976 46.9624 147.943 47.0299C147.38 48.1263 145.801 50.8015 143.092 52.2757C138.831 54.5679 135.874 49.6527 137.873 47.245C140.046 44.5697 145.223 45.0786 147.68 46.2641Z" fill="#22CCB2"/>
    <path d="M140.669 49.0528C140.627 49.0525 140.586 49.0425 140.548 49.0233C140.511 49.0042 140.478 48.9765 140.453 48.9426C140.415 48.8854 140.4 48.8153 140.413 48.7476C140.426 48.6799 140.465 48.6199 140.522 48.5807C144.484 45.8005 147.772 46.152 147.888 46.1729C147.956 46.1808 148.019 46.2156 148.063 46.2697C148.106 46.3237 148.126 46.3926 148.119 46.4614C148.11 46.5306 148.074 46.5935 148.019 46.6366C147.963 46.6797 147.894 46.6997 147.824 46.6922C147.793 46.6922 144.588 46.3513 140.801 49.0055C140.762 49.0341 140.717 49.0506 140.669 49.0528Z" fill="white"/>
    <path d="M150.455 48.8C150.416 48.7352 150.364 48.6789 150.303 48.6344C150.242 48.5899 150.173 48.5582 150.099 48.541C150.026 48.5239 149.949 48.5218 149.875 48.5347C149.8 48.5476 149.729 48.5754 149.666 48.6164C148.614 49.2773 146.109 51.1133 144.931 53.9406C143.063 58.3995 148.235 60.849 150.465 58.6252C152.901 56.1964 151.886 51.0923 150.455 48.8Z" fill="#22CCB2"/>
    <path d="M148.6 56.2391C148.555 56.2386 148.51 56.2279 148.469 56.2077C148.408 56.1723 148.363 56.1146 148.344 56.0468C148.326 55.979 148.335 55.9066 148.369 55.8454C150.647 51.8273 149.994 48.6801 149.989 48.6486C149.982 48.6152 149.981 48.5806 149.986 48.5468C149.992 48.513 150.005 48.4807 150.024 48.4519C150.042 48.423 150.067 48.3982 150.095 48.3788C150.124 48.3595 150.156 48.346 150.189 48.3391C150.223 48.3314 150.258 48.3304 150.292 48.3363C150.326 48.3421 150.359 48.3547 150.388 48.3732C150.418 48.3918 150.443 48.4159 150.463 48.4442C150.483 48.4726 150.497 48.5047 150.505 48.5385C150.536 48.6696 151.21 51.8956 148.832 56.108C148.808 56.1475 148.773 56.1804 148.733 56.2031C148.693 56.2264 148.647 56.2386 148.6 56.2391Z" fill="white"/>
    <path d="M164.74 66.9769C165.753 64.491 166.905 62.0637 168.192 59.7067C168.512 59.1137 167.602 58.5789 167.281 59.182C165.955 61.6209 164.768 64.1322 163.725 66.7042C163.707 66.7705 163.702 66.8403 163.71 66.9086C163.719 66.9769 163.741 67.0432 163.775 67.1029C163.809 67.1631 163.855 67.2153 163.909 67.2578C163.964 67.3003 164.026 67.3311 164.093 67.3494C164.16 67.3676 164.229 67.3726 164.298 67.364C164.367 67.3559 164.433 67.3337 164.493 67.2998C164.553 67.2654 164.606 67.2198 164.648 67.1657C164.691 67.111 164.722 67.0488 164.74 66.9825V66.9769ZM167.176 71.7455L179.508 66.9663C180.134 66.7255 179.861 65.7074 179.229 65.9543L166.897 70.738C166.277 70.9794 166.545 71.9919 167.176 71.7455ZM167.734 77.8038L176.225 78.8528C176.365 78.8528 176.498 78.7976 176.597 78.6994C176.696 78.6008 176.751 78.4677 176.751 78.3285C176.751 78.1894 176.696 78.0558 176.597 77.9576C176.498 77.859 176.365 77.8038 176.225 77.8038L167.734 76.7549C167.45 76.7179 167.208 77.0221 167.208 77.2791C167.208 77.4182 167.263 77.5518 167.362 77.65C167.46 77.7487 167.594 77.8038 167.734 77.8038Z" fill="#22CCB2"/>
    <path d="M28.7472 102.505C29.9792 102.505 30.9779 101.509 30.9779 100.281C30.9779 99.0525 29.9792 98.0566 28.7472 98.0566C27.5153 98.0566 26.5166 99.0525 26.5166 100.281C26.5166 101.509 27.5153 102.505 28.7472 102.505Z" fill="#22CCB2"/>
    <path d="M81.9338 163.809C83.7034 163.809 85.1379 162.379 85.1379 160.615C85.1379 158.85 83.7034 157.42 81.9338 157.42C80.1642 157.42 78.7297 158.85 78.7297 160.615C78.7297 162.379 80.1642 163.809 81.9338 163.809Z" fill="#22CCB2"/>
  </g>
  <defs>
    <clipPath id="clip0_2_1748">
      <rect y="0.5" width="205" height="170" fill="white"/>
    </clipPath>
  </defs>
</svg>